<svg width="1301" height="207" viewBox="0 0 1301 207" fill="none" xmlns="http://www.w3.org/2000/svg">
<g filter="url(#filter0_d_2757_2753)">
<rect x="4.5" y="0.5" width="1292" height="198" stroke="#2F2E39" shape-rendering="crispEdges"/>
<rect opacity="0.05" x="5.5" y="1.5" width="1290" height="196" fill="#FFD214" stroke="#2F2E39"/>
<path d="M522.785 111L534.125 85.8H538.733L550.109 111H545.213L535.457 88.284H537.329L527.609 111H522.785ZM528.005 105.168L529.265 101.496H542.873L544.133 105.168H528.005ZM560.55 111.36C558.582 111.36 556.698 111.084 554.898 110.532C553.098 109.956 551.67 109.224 550.614 108.336L552.234 104.7C553.242 105.492 554.49 106.152 555.978 106.68C557.466 107.208 558.99 107.472 560.55 107.472C561.87 107.472 562.938 107.328 563.754 107.04C564.57 106.752 565.17 106.368 565.554 105.888C565.938 105.384 566.13 104.82 566.13 104.196C566.13 103.428 565.854 102.816 565.302 102.36C564.75 101.88 564.03 101.508 563.142 101.244C562.278 100.956 561.306 100.692 560.226 100.452C559.17 100.212 558.102 99.936 557.022 99.624C555.966 99.288 554.994 98.868 554.106 98.364C553.242 97.836 552.534 97.14 551.982 96.276C551.43 95.412 551.154 94.308 551.154 92.964C551.154 91.596 551.514 90.348 552.234 89.22C552.978 88.068 554.094 87.156 555.582 86.484C557.094 85.788 559.002 85.44 561.306 85.44C562.818 85.44 564.318 85.632 565.806 86.016C567.294 86.4 568.59 86.952 569.694 87.672L568.218 91.308C567.09 90.636 565.926 90.144 564.726 89.832C563.526 89.496 562.374 89.328 561.27 89.328C559.974 89.328 558.918 89.484 558.102 89.796C557.31 90.108 556.722 90.516 556.338 91.02C555.978 91.524 555.798 92.1 555.798 92.748C555.798 93.516 556.062 94.14 556.59 94.62C557.142 95.076 557.85 95.436 558.714 95.7C559.602 95.964 560.586 96.228 561.666 96.492C562.746 96.732 563.814 97.008 564.87 97.32C565.95 97.632 566.922 98.04 567.786 98.544C568.674 99.048 569.382 99.732 569.91 100.596C570.462 101.46 570.738 102.552 570.738 103.872C570.738 105.216 570.366 106.464 569.622 107.616C568.902 108.744 567.786 109.656 566.274 110.352C564.762 111.024 562.854 111.36 560.55 111.36ZM586.467 111.36C584.547 111.36 582.759 111.048 581.103 110.424C579.471 109.776 578.043 108.876 576.819 107.724C575.619 106.548 574.683 105.168 574.011 103.584C573.339 102 573.003 100.272 573.003 98.4C573.003 96.528 573.339 94.8 574.011 93.216C574.683 91.632 575.631 90.264 576.855 89.112C578.079 87.936 579.507 87.036 581.139 86.412C582.771 85.764 584.559 85.44 586.503 85.44C588.567 85.44 590.451 85.8 592.155 86.52C593.859 87.216 595.299 88.26 596.475 89.652L593.451 92.496C592.539 91.512 591.519 90.78 590.391 90.3C589.263 89.796 588.039 89.544 586.719 89.544C585.399 89.544 584.187 89.76 583.083 90.192C582.003 90.624 581.055 91.236 580.239 92.028C579.447 92.82 578.823 93.756 578.367 94.836C577.935 95.916 577.719 97.104 577.719 98.4C577.719 99.696 577.935 100.884 578.367 101.964C578.823 103.044 579.447 103.98 580.239 104.772C581.055 105.564 582.003 106.176 583.083 106.608C584.187 107.04 585.399 107.256 586.719 107.256C588.039 107.256 589.263 107.016 590.391 106.536C591.519 106.032 592.539 105.276 593.451 104.268L596.475 107.148C595.299 108.516 593.859 109.56 592.155 110.28C590.451 111 588.555 111.36 586.467 111.36ZM628.502 111V85.8H632.354L648.158 105.204H646.25V85.8H650.894V111H647.042L631.238 91.596H633.146V111H628.502ZM657.071 111V85.8H668.087C670.823 85.8 673.223 86.328 675.287 87.384C677.351 88.44 678.959 89.904 680.111 91.776C681.263 93.648 681.839 95.856 681.839 98.4C681.839 100.92 681.263 103.128 680.111 105.024C678.959 106.896 677.351 108.36 675.287 109.416C673.223 110.472 670.823 111 668.087 111H657.071ZM661.751 107.04H667.871C669.767 107.04 671.399 106.68 672.767 105.96C674.159 105.24 675.227 104.232 675.971 102.936C676.739 101.64 677.123 100.128 677.123 98.4C677.123 96.648 676.739 95.136 675.971 93.864C675.227 92.568 674.159 91.56 672.767 90.84C671.399 90.12 669.767 89.76 667.871 89.76H661.751V107.04ZM682.322 111L693.662 85.8H698.27L709.646 111H704.75L694.994 88.284H696.866L687.146 111H682.322ZM687.542 105.168L688.802 101.496H702.41L703.67 105.168H687.542ZM712.274 111V85.8H716.126L731.93 105.204H730.022V85.8H734.666V111H730.814L715.01 91.596H716.918V111H712.274Z" fill="#FFD214"/>
<path d="M606.943 86H622.5L619.559 91.5274H603.5L606.943 86Z" fill="#FFD214"/>
<path d="M606.943 95.3137H622.5L619.559 100.841H603.5L606.943 95.3137Z" fill="#FFD214"/>
<path d="M606.943 105.473H622.5L619.559 111H603.5L606.943 105.473Z" fill="#FFD214"/>
<path d="M743.121 86.069L767.948 86.069L765.121 91.3448H739.811L743.121 86.069Z" fill="#FFD214"/>
<path d="M750.361 107.514L750.361 91.3448L755.637 94.0577L755.637 110.69L750.361 107.514Z" fill="#FFD214"/>
<circle cx="9.5" cy="9.5" r="9.5" transform="matrix(1 0 0 -1 362 107)" fill="url(#paint0_radial_2757_2753)" fill-opacity="0.2"/>
<circle cx="9.5" cy="9.5" r="9.5" transform="matrix(1 0 0 -1 675 168)" fill="url(#paint1_radial_2757_2753)" fill-opacity="0.2"/>
<circle cx="9.5" cy="9.5" r="9.5" transform="matrix(1 0 0 -1 1058 100)" fill="url(#paint2_radial_2757_2753)" fill-opacity="0.1"/>
</g>
<defs>
<filter id="filter0_d_2757_2753" x="0" y="0" width="1301" height="207" filterUnits="userSpaceOnUse" color-interpolation-filters="sRGB">
<feFlood flood-opacity="0" result="BackgroundImageFix"/>
<feColorMatrix in="SourceAlpha" type="matrix" values="0 0 0 0 0 0 0 0 0 0 0 0 0 0 0 0 0 0 127 0" result="hardAlpha"/>
<feOffset dy="4"/>
<feGaussianBlur stdDeviation="2"/>
<feComposite in2="hardAlpha" operator="out"/>
<feColorMatrix type="matrix" values="0 0 0 0 0 0 0 0 0 0 0 0 0 0 0 0 0 0 0.25 0"/>
<feBlend mode="normal" in2="BackgroundImageFix" result="effect1_dropShadow_2757_2753"/>
<feBlend mode="normal" in="SourceGraphic" in2="effect1_dropShadow_2757_2753" result="shape"/>
</filter>
<radialGradient id="paint0_radial_2757_2753" cx="0" cy="0" r="1" gradientUnits="userSpaceOnUse" gradientTransform="translate(9.5 9.5) rotate(-90) scale(9.5)">
<stop stop-color="#FFD214"/>
<stop offset="1" stop-color="#141619"/>
</radialGradient>
<radialGradient id="paint1_radial_2757_2753" cx="0" cy="0" r="1" gradientUnits="userSpaceOnUse" gradientTransform="translate(9.5 9.5) rotate(-90) scale(9.5)">
<stop stop-color="#FFD214"/>
<stop offset="1" stop-color="#141619"/>
</radialGradient>
<radialGradient id="paint2_radial_2757_2753" cx="0" cy="0" r="1" gradientUnits="userSpaceOnUse" gradientTransform="translate(9.5 9.5) rotate(-90) scale(9.5)">
<stop stop-color="#FFD214"/>
<stop offset="1" stop-color="#141619"/>
</radialGradient>
</defs>
</svg>
