<svg width="1301" height="207" viewBox="0 0 1301 207" fill="none" xmlns="http://www.w3.org/2000/svg">
<g filter="url(#filter0_d_2757_2570)">
<rect x="4.5" y="0.5" width="1292" height="198" stroke="#2F2E39" shape-rendering="crispEdges"/>
<rect opacity="0.05" x="5.5" y="1.5" width="1290" height="196" fill="#AA6746" stroke="#2F2E39"/>
<circle cx="9.5" cy="9.5" r="9.5" transform="matrix(1 0 0 -1 1058 100)" fill="url(#paint0_radial_2757_2570)" fill-opacity="0.1"/>
<circle cx="9.5" cy="9.5" r="9.5" transform="matrix(1 0 0 -1 362 107)" fill="url(#paint1_radial_2757_2570)" fill-opacity="0.2"/>
<circle cx="9.5" cy="9.5" r="9.5" transform="matrix(1 0 0 -1 675 168)" fill="url(#paint2_radial_2757_2570)" fill-opacity="0.2"/>
<path d="M585.059 86.5601H600.616L597.675 91.2031H581.616L585.059 86.5601Z" fill="#AA6746"/>
<path d="M585.058 96.4171H600.615L597.674 101.06H581.615L585.058 96.4171Z" fill="#AA6746"/>
<path d="M585.059 106.417H600.616L597.675 111.06H581.616L585.059 106.417Z" fill="#AA6746"/>
<path d="M703.059 86.5601H718.616L715.675 91.2031H699.616L703.059 86.5601Z" fill="#AA6746"/>
<path d="M703.058 96.4171H718.615L715.674 101.06H699.615L703.058 96.4171Z" fill="#AA6746"/>
<path d="M703.059 106.417H718.616L715.675 111.06H699.616L703.059 106.417Z" fill="#AA6746"/>
<path d="M556 111.56V86.36H567.808C570.832 86.36 573.136 86.96 574.72 88.16C576.304 89.336 577.096 90.92 577.096 92.912C577.096 94.256 576.784 95.408 576.16 96.368C575.536 97.304 574.696 98.036 573.64 98.564C572.608 99.068 571.48 99.32 570.256 99.32L570.904 98.024C572.32 98.024 573.592 98.288 574.72 98.816C575.848 99.32 576.736 100.064 577.384 101.048C578.056 102.032 578.392 103.256 578.392 104.72C578.392 106.88 577.564 108.56 575.908 109.76C574.252 110.96 571.792 111.56 568.528 111.56H556ZM560.68 107.888H568.24C569.992 107.888 571.336 107.6 572.272 107.024C573.208 106.448 573.676 105.524 573.676 104.252C573.676 103.004 573.208 102.092 572.272 101.516C571.336 100.916 569.992 100.616 568.24 100.616H560.32V96.98H567.304C568.936 96.98 570.184 96.692 571.048 96.116C571.936 95.54 572.38 94.676 572.38 93.524C572.38 92.348 571.936 91.472 571.048 90.896C570.184 90.32 568.936 90.032 567.304 90.032H560.68V107.888Z" fill="#AA6746"/>
<path d="M618.124 111.92C616.156 111.92 614.344 111.608 612.688 110.984C611.056 110.336 609.628 109.436 608.404 108.284C607.18 107.108 606.232 105.728 605.56 104.144C604.888 102.56 604.552 100.832 604.552 98.96C604.552 97.088 604.888 95.36 605.56 93.776C606.232 92.192 607.18 90.824 608.404 89.672C609.652 88.496 611.104 87.596 612.76 86.972C614.416 86.324 616.228 86 618.196 86C620.332 86 622.252 86.348 623.956 87.044C625.684 87.74 627.136 88.76 628.312 90.104L625.36 92.984C624.376 92 623.308 91.28 622.156 90.824C621.028 90.344 619.78 90.104 618.412 90.104C617.092 90.104 615.868 90.32 614.74 90.752C613.612 91.184 612.64 91.796 611.824 92.588C611.008 93.38 610.372 94.316 609.916 95.396C609.484 96.476 609.268 97.664 609.268 98.96C609.268 100.232 609.484 101.408 609.916 102.488C610.372 103.568 611.008 104.516 611.824 105.332C612.64 106.124 613.6 106.736 614.704 107.168C615.808 107.6 617.032 107.816 618.376 107.816C619.624 107.816 620.824 107.624 621.976 107.24C623.152 106.832 624.268 106.16 625.324 105.224L627.988 108.716C626.668 109.772 625.132 110.576 623.38 111.128C621.652 111.656 619.9 111.92 618.124 111.92ZM623.56 108.104V98.672H627.988V108.716L623.56 108.104Z" fill="#AA6746"/>
<path d="M633.585 111.56V86.36H638.265V111.56H633.585Z" fill="#AA6746"/>
<path d="M644.505 111.56V86.36H648.357L664.161 105.764H662.253V86.36H666.897V111.56H663.045L647.241 92.156H649.149V111.56H644.505Z" fill="#AA6746"/>
<path d="M673.073 111.56V86.36H676.925L692.729 105.764H690.821V86.36H695.465V111.56H691.613L675.809 92.156H677.717V111.56H673.073Z" fill="#AA6746"/>
<path d="M725.183 111.56V86.36H735.551C737.783 86.36 739.691 86.72 741.275 87.44C742.883 88.16 744.119 89.192 744.983 90.536C745.847 91.88 746.279 93.476 746.279 95.324C746.279 97.172 745.847 98.768 744.983 100.112C744.119 101.432 742.883 102.452 741.275 103.172C739.691 103.868 737.783 104.216 735.551 104.216H727.775L729.863 102.092V111.56H725.183ZM741.671 111.56L735.299 102.416H740.303L746.711 111.56H741.671ZM729.863 102.596L727.775 100.364H735.335C737.399 100.364 738.947 99.92 739.979 99.032C741.035 98.144 741.563 96.908 741.563 95.324C741.563 93.716 741.035 92.48 739.979 91.616C738.947 90.752 737.399 90.32 735.335 90.32H727.775L729.863 88.016V102.596Z" fill="#AA6746"/>
</g>
<defs>
<filter id="filter0_d_2757_2570" x="0" y="0" width="1301" height="207" filterUnits="userSpaceOnUse" color-interpolation-filters="sRGB">
<feFlood flood-opacity="0" result="BackgroundImageFix"/>
<feColorMatrix in="SourceAlpha" type="matrix" values="0 0 0 0 0 0 0 0 0 0 0 0 0 0 0 0 0 0 127 0" result="hardAlpha"/>
<feOffset dy="4"/>
<feGaussianBlur stdDeviation="2"/>
<feComposite in2="hardAlpha" operator="out"/>
<feColorMatrix type="matrix" values="0 0 0 0 0 0 0 0 0 0 0 0 0 0 0 0 0 0 0.25 0"/>
<feBlend mode="normal" in2="BackgroundImageFix" result="effect1_dropShadow_2757_2570"/>
<feBlend mode="normal" in="SourceGraphic" in2="effect1_dropShadow_2757_2570" result="shape"/>
</filter>
<radialGradient id="paint0_radial_2757_2570" cx="0" cy="0" r="1" gradientUnits="userSpaceOnUse" gradientTransform="translate(9.5 9.5) rotate(-90) scale(9.5)">
<stop stop-color="#AA6746"/>
<stop offset="1" stop-color="#141619"/>
</radialGradient>
<radialGradient id="paint1_radial_2757_2570" cx="0" cy="0" r="1" gradientUnits="userSpaceOnUse" gradientTransform="translate(9.5 9.5) rotate(-90) scale(9.5)">
<stop stop-color="#AA6746"/>
<stop offset="1" stop-color="#141619"/>
</radialGradient>
<radialGradient id="paint2_radial_2757_2570" cx="0" cy="0" r="1" gradientUnits="userSpaceOnUse" gradientTransform="translate(9.5 9.5) rotate(-90) scale(9.5)">
<stop stop-color="#AA6746"/>
<stop offset="1" stop-color="#141619"/>
</radialGradient>
</defs>
</svg>
