<svg width="1301" height="207" viewBox="0 0 1301 207" fill="none" xmlns="http://www.w3.org/2000/svg">
<g filter="url(#filter0_d_2757_2638)">
<rect x="4.5" y="0.5" width="1292" height="198" stroke="#2F2E39" shape-rendering="crispEdges"/>
<rect opacity="0.05" x="5.5" y="1.5" width="1290" height="196" fill="#8E14FF" stroke="#2F2E39"/>
<circle cx="9.5" cy="9.5" r="9.5" transform="matrix(1 0 0 -1 1058 100)" fill="url(#paint0_radial_2757_2638)" fill-opacity="0.1"/>
<circle cx="9.5" cy="9.5" r="9.5" transform="matrix(1 0 0 -1 362 107)" fill="url(#paint1_radial_2757_2638)" fill-opacity="0.2"/>
<circle cx="9.5" cy="9.5" r="9.5" transform="matrix(1 0 0 -1 675 168)" fill="url(#paint2_radial_2757_2638)" fill-opacity="0.2"/>
<path d="M614.504 113V87.8H619.184V109.04H632.36V113H614.504ZM659.337 113V91.76H650.985V87.8H672.369V91.76H664.017V113H659.337Z" fill="#8E14FF"/>
<path d="M592.443 88H608L605.059 93.5274H589L592.443 88Z" fill="#8E14FF"/>
<path d="M592.443 97.3137H608L605.059 102.841H589L592.443 97.3137Z" fill="#8E14FF"/>
<path d="M592.443 107.473H608L605.059 113H589L592.443 107.473Z" fill="#8E14FF"/>
<path d="M678.443 88H694L691.059 93.5274H675L678.443 88Z" fill="#8E14FF"/>
<path d="M678.443 97.3137H694L691.059 102.841H675L678.443 97.3137Z" fill="#8E14FF"/>
<path d="M678.443 107.473H694L691.059 113H675L678.443 107.473Z" fill="#8E14FF"/>
<path d="M644 110.17L644 88L639 90.8302L639 113L644 110.17Z" fill="#8E14FF"/>
</g>
<defs>
<filter id="filter0_d_2757_2638" x="0" y="0" width="1301" height="207" filterUnits="userSpaceOnUse" color-interpolation-filters="sRGB">
<feFlood flood-opacity="0" result="BackgroundImageFix"/>
<feColorMatrix in="SourceAlpha" type="matrix" values="0 0 0 0 0 0 0 0 0 0 0 0 0 0 0 0 0 0 127 0" result="hardAlpha"/>
<feOffset dy="4"/>
<feGaussianBlur stdDeviation="2"/>
<feComposite in2="hardAlpha" operator="out"/>
<feColorMatrix type="matrix" values="0 0 0 0 0 0 0 0 0 0 0 0 0 0 0 0 0 0 0.25 0"/>
<feBlend mode="normal" in2="BackgroundImageFix" result="effect1_dropShadow_2757_2638"/>
<feBlend mode="normal" in="SourceGraphic" in2="effect1_dropShadow_2757_2638" result="shape"/>
</filter>
<radialGradient id="paint0_radial_2757_2638" cx="0" cy="0" r="1" gradientUnits="userSpaceOnUse" gradientTransform="translate(9.5 9.5) rotate(-90) scale(9.5)">
<stop stop-color="#8E14FF"/>
<stop offset="1" stop-color="#141619"/>
</radialGradient>
<radialGradient id="paint1_radial_2757_2638" cx="0" cy="0" r="1" gradientUnits="userSpaceOnUse" gradientTransform="translate(9.5 9.5) rotate(-90) scale(9.5)">
<stop stop-color="#8E14FF"/>
<stop offset="1" stop-color="#141619"/>
</radialGradient>
<radialGradient id="paint2_radial_2757_2638" cx="0" cy="0" r="1" gradientUnits="userSpaceOnUse" gradientTransform="translate(9.5 9.5) rotate(-90) scale(9.5)">
<stop stop-color="#8E14FF"/>
<stop offset="1" stop-color="#141619"/>
</radialGradient>
</defs>
</svg>
