<svg width="1299" height="206" viewBox="0 0 1299 206" fill="none" xmlns="http://www.w3.org/2000/svg">
<g filter="url(#filter0_d_2757_2741)">
<rect opacity="0.05" x="4.5" y="1.5" width="1290" height="196" fill="#8A8A8A" stroke="#2F2E39"/>
<circle cx="9.5" cy="9.5" r="9.5" transform="matrix(1 0 0 -1 1057 100)" fill="url(#paint0_radial_2757_2741)" fill-opacity="0.1"/>
<circle cx="9.5" cy="9.5" r="9.5" transform="matrix(1 0 0 -1 361 107)" fill="url(#paint1_radial_2757_2741)" fill-opacity="0.2"/>
<circle cx="9.5" cy="9.5" r="9.5" transform="matrix(1 0 0 -1 674 168)" fill="url(#paint2_radial_2757_2741)" fill-opacity="0.2"/>
<path d="M673.654 89.4051L678.735 86.4719L678.854 108.297L673.35 111.475L673.654 89.4051Z" fill="#8A8A8A"/>
<path d="M690.91 89.4051L695.99 86.4719L696.109 108.297L690.605 111.475L690.91 89.4051Z" fill="#8A8A8A"/>
<path d="M676.585 92.7503L678.608 86.4773L691.109 103.475L690.609 111.476L676.585 92.7503Z" fill="#8A8A8A"/>
<path d="M571 112V86.7998H575.68V108.04H588.856V112H571Z" fill="#8A8A8A"/>
<path d="M631.866 112.36C629.898 112.36 628.086 112.048 626.43 111.424C624.798 110.776 623.37 109.876 622.146 108.724C620.922 107.548 619.974 106.168 619.302 104.584C618.63 103 618.294 101.272 618.294 99.3998C618.294 97.5278 618.63 95.7998 619.302 94.2158C619.974 92.6318 620.922 91.2638 622.146 90.1118C623.394 88.9358 624.846 88.0358 626.502 87.4118C628.158 86.7638 629.97 86.4398 631.938 86.4398C634.074 86.4398 635.994 86.7878 637.698 87.4838C639.426 88.1798 640.878 89.1998 642.054 90.5438L639.102 93.4238C638.118 92.4398 637.05 91.7198 635.898 91.2638C634.77 90.7838 633.522 90.5438 632.154 90.5438C630.834 90.5438 629.61 90.7598 628.482 91.1918C627.354 91.6238 626.382 92.2358 625.566 93.0278C624.75 93.8198 624.114 94.7558 623.658 95.8358C623.226 96.9158 623.01 98.1038 623.01 99.3998C623.01 100.672 623.226 101.848 623.658 102.928C624.114 104.008 624.75 104.956 625.566 105.772C626.382 106.564 627.342 107.176 628.446 107.608C629.55 108.04 630.774 108.256 632.118 108.256C633.366 108.256 634.566 108.064 635.718 107.68C636.894 107.272 638.01 106.6 639.066 105.664L641.73 109.156C640.41 110.212 638.874 111.016 637.122 111.568C635.394 112.096 633.642 112.36 631.866 112.36ZM637.302 108.544V99.1118H641.73V109.156L637.302 108.544Z" fill="#8A8A8A"/>
<path d="M703.566 112V86.7998H714.582C717.318 86.7998 719.718 87.3278 721.782 88.3838C723.846 89.4398 725.454 90.9038 726.606 92.7758C727.758 94.6478 728.334 96.8558 728.334 99.3998C728.334 101.92 727.758 104.128 726.606 106.024C725.454 107.896 723.846 109.36 721.782 110.416C719.718 111.472 717.318 112 714.582 112H703.566ZM708.246 108.04H714.366C716.262 108.04 717.894 107.68 719.262 106.96C720.654 106.24 721.722 105.232 722.466 103.936C723.234 102.64 723.618 101.128 723.618 99.3998C723.618 97.6478 723.234 96.1358 722.466 94.8638C721.722 93.5678 720.654 92.5598 719.262 91.8398C717.894 91.1198 716.262 90.7598 714.366 90.7598H708.246V108.04Z" fill="#8A8A8A"/>
<path d="M652.313 86.9999H667.87L664.929 91.6429H648.87L652.313 86.9999Z" fill="#8A8A8A"/>
<path d="M652.312 96.8569H667.869L664.928 101.5H648.869L652.312 96.8569Z" fill="#8A8A8A"/>
<path d="M652.313 106.857H667.87L664.929 111.5H648.87L652.313 106.857Z" fill="#8A8A8A"/>
<path d="M598.313 87H613.87L610.929 91.643H594.87L598.313 87Z" fill="#8A8A8A"/>
<path d="M598.312 96.857H613.869L610.928 101.5H594.869L598.312 96.857Z" fill="#8A8A8A"/>
<path d="M598.313 106.857H613.87L610.929 111.5H594.87L598.313 106.857Z" fill="#8A8A8A"/>
</g>
<defs>
<filter id="filter0_d_2757_2741" x="-1" y="0" width="1301" height="207" filterUnits="userSpaceOnUse" color-interpolation-filters="sRGB">
<feFlood flood-opacity="0" result="BackgroundImageFix"/>
<feColorMatrix in="SourceAlpha" type="matrix" values="0 0 0 0 0 0 0 0 0 0 0 0 0 0 0 0 0 0 127 0" result="hardAlpha"/>
<feOffset dy="4"/>
<feGaussianBlur stdDeviation="2"/>
<feComposite in2="hardAlpha" operator="out"/>
<feColorMatrix type="matrix" values="0 0 0 0 0 0 0 0 0 0 0 0 0 0 0 0 0 0 0.25 0"/>
<feBlend mode="normal" in2="BackgroundImageFix" result="effect1_dropShadow_2757_2741"/>
<feBlend mode="normal" in="SourceGraphic" in2="effect1_dropShadow_2757_2741" result="shape"/>
</filter>
<radialGradient id="paint0_radial_2757_2741" cx="0" cy="0" r="1" gradientUnits="userSpaceOnUse" gradientTransform="translate(9.5 9.5) rotate(-90) scale(9.5)">
<stop stop-color="#8A8A8A"/>
<stop offset="1" stop-color="#141619"/>
</radialGradient>
<radialGradient id="paint1_radial_2757_2741" cx="0" cy="0" r="1" gradientUnits="userSpaceOnUse" gradientTransform="translate(9.5 9.5) rotate(-90) scale(9.5)">
<stop stop-color="#8A8A8A"/>
<stop offset="1" stop-color="#141619"/>
</radialGradient>
<radialGradient id="paint2_radial_2757_2741" cx="0" cy="0" r="1" gradientUnits="userSpaceOnUse" gradientTransform="translate(9.5 9.5) rotate(-90) scale(9.5)">
<stop stop-color="#8A8A8A"/>
<stop offset="1" stop-color="#141619"/>
</radialGradient>
</defs>
</svg>
