<svg width="1301" height="207" viewBox="0 0 1301 207" fill="none" xmlns="http://www.w3.org/2000/svg">
<g filter="url(#filter0_d_2139_1855)">
<rect x="4.5" y="0.5" width="1292" height="198" stroke="#2F2E39" shape-rendering="crispEdges"/>
<rect opacity="0.05" x="5.5" y="1.5" width="1290" height="196" fill="#14FFEC" stroke="#2F2E39"/>
<circle cx="9.5" cy="9.5" r="9.5" transform="matrix(1 0 0 -1 1058 100)" fill="url(#paint0_radial_2139_1855)" fill-opacity="0.1"/>
<circle cx="9.5" cy="9.5" r="9.5" transform="matrix(1 0 0 -1 362 107)" fill="url(#paint1_radial_2139_1855)" fill-opacity="0.2"/>
<circle cx="9.5" cy="9.5" r="9.5" transform="matrix(1 0 0 -1 675 168)" fill="url(#paint2_radial_2139_1855)" fill-opacity="0.2"/>
<path d="M570.936 111.92C568.968 111.92 567.084 111.644 565.284 111.092C563.484 110.516 562.056 109.784 561 108.896L562.62 105.26C563.628 106.052 564.876 106.712 566.364 107.24C567.852 107.768 569.376 108.032 570.936 108.032C572.256 108.032 573.324 107.888 574.14 107.6C574.956 107.312 575.556 106.928 575.94 106.448C576.324 105.944 576.516 105.38 576.516 104.756C576.516 103.988 576.24 103.376 575.688 102.92C575.136 102.44 574.416 102.068 573.528 101.804C572.664 101.516 571.692 101.252 570.612 101.012C569.556 100.772 568.488 100.496 567.408 100.184C566.352 99.848 565.38 99.428 564.492 98.924C563.628 98.396 562.92 97.7 562.368 96.836C561.816 95.972 561.54 94.868 561.54 93.524C561.54 92.156 561.9 90.908 562.62 89.78C563.364 88.628 564.48 87.716 565.968 87.044C567.48 86.348 569.388 86 571.692 86C573.204 86 574.704 86.192 576.192 86.576C577.68 86.96 578.976 87.512 580.08 88.232L578.604 91.868C577.476 91.196 576.312 90.704 575.112 90.392C573.912 90.056 572.76 89.888 571.656 89.888C570.36 89.888 569.304 90.044 568.488 90.356C567.696 90.668 567.108 91.076 566.724 91.58C566.364 92.084 566.184 92.66 566.184 93.308C566.184 94.076 566.448 94.7 566.976 95.18C567.528 95.636 568.236 95.996 569.1 96.26C569.988 96.524 570.972 96.788 572.052 97.052C573.132 97.292 574.2 97.568 575.256 97.88C576.336 98.192 577.308 98.6 578.172 99.104C579.06 99.608 579.768 100.292 580.296 101.156C580.848 102.02 581.124 103.112 581.124 104.432C581.124 105.776 580.752 107.024 580.008 108.176C579.288 109.304 578.172 110.216 576.66 110.912C575.148 111.584 573.24 111.92 570.936 111.92Z" fill="#14FFEC"/>
<path d="M609.744 111.56L621.084 86.36H625.692L637.068 111.56H632.172L622.416 88.844H624.288L614.568 111.56H609.744ZM614.964 105.728L616.224 102.056H629.832L631.092 105.728H614.964Z" fill="#14FFEC"/>
<path d="M639.697 111.56V86.36H650.065C652.297 86.36 654.205 86.72 655.789 87.44C657.397 88.16 658.633 89.192 659.497 90.536C660.361 91.88 660.793 93.476 660.793 95.324C660.793 97.172 660.361 98.768 659.497 100.112C658.633 101.432 657.397 102.452 655.789 103.172C654.205 103.868 652.297 104.216 650.065 104.216H642.289L644.377 102.092V111.56H639.697ZM656.185 111.56L649.813 102.416H654.817L661.225 111.56H656.185ZM644.377 102.596L642.289 100.364H649.849C651.913 100.364 653.461 99.92 654.493 99.032C655.549 98.144 656.077 96.908 656.077 95.324C656.077 93.716 655.549 92.48 654.493 91.616C653.461 90.752 651.913 90.32 649.849 90.32H642.289L644.377 88.016V102.596Z" fill="#14FFEC"/>
<path d="M700.991 96.836H713.519V100.688H700.991V96.836ZM701.351 107.636H715.571V111.56H696.671V86.36H715.067V90.284H701.351V107.636Z" fill="#14FFEC"/>
<path d="M720.212 111.56V86.36H730.58C732.812 86.36 734.72 86.72 736.304 87.44C737.912 88.16 739.148 89.192 740.012 90.536C740.876 91.88 741.308 93.476 741.308 95.324C741.308 97.172 740.876 98.768 740.012 100.112C739.148 101.432 737.912 102.452 736.304 103.172C734.72 103.868 732.812 104.216 730.58 104.216H722.804L724.892 102.092V111.56H720.212ZM736.7 111.56L730.328 102.416H735.332L741.74 111.56H736.7ZM724.892 102.596L722.804 100.364H730.364C732.428 100.364 733.976 99.92 735.008 99.032C736.064 98.144 736.592 96.908 736.592 95.324C736.592 93.716 736.064 92.48 735.008 91.616C733.976 90.752 732.428 90.32 730.364 90.32H722.804L724.892 88.016V102.596Z" fill="#14FFEC"/>
<path d="M587.229 86.5601L613.391 86.5601L610.412 91.3566H583.74L587.229 86.5601Z" fill="#14FFEC"/>
<path d="M596.096 108.072L596.096 91.3566L600.892 94.3362L600.892 111.56L596.096 108.072Z" fill="#14FFEC"/>
<path d="M667.229 86.5601L693.391 86.5601L690.412 91.3566H663.74L667.229 86.5601Z" fill="#14FFEC"/>
<path d="M676.096 108.072L676.096 91.3566L680.892 94.3362L680.892 111.56L676.096 108.072Z" fill="#14FFEC"/>
</g>
<defs>
<filter id="filter0_d_2139_1855" x="0" y="0" width="1301" height="207" filterUnits="userSpaceOnUse" color-interpolation-filters="sRGB">
<feFlood flood-opacity="0" result="BackgroundImageFix"/>
<feColorMatrix in="SourceAlpha" type="matrix" values="0 0 0 0 0 0 0 0 0 0 0 0 0 0 0 0 0 0 127 0" result="hardAlpha"/>
<feOffset dy="4"/>
<feGaussianBlur stdDeviation="2"/>
<feComposite in2="hardAlpha" operator="out"/>
<feColorMatrix type="matrix" values="0 0 0 0 0 0 0 0 0 0 0 0 0 0 0 0 0 0 0.25 0"/>
<feBlend mode="normal" in2="BackgroundImageFix" result="effect1_dropShadow_2139_1855"/>
<feBlend mode="normal" in="SourceGraphic" in2="effect1_dropShadow_2139_1855" result="shape"/>
</filter>
<radialGradient id="paint0_radial_2139_1855" cx="0" cy="0" r="1" gradientUnits="userSpaceOnUse" gradientTransform="translate(9.5 9.5) rotate(-90) scale(9.5)">
<stop stop-color="#14FFEC"/>
<stop offset="1" stop-color="#141619"/>
</radialGradient>
<radialGradient id="paint1_radial_2139_1855" cx="0" cy="0" r="1" gradientUnits="userSpaceOnUse" gradientTransform="translate(9.5 9.5) rotate(-90) scale(9.5)">
<stop stop-color="#14FFEC"/>
<stop offset="1" stop-color="#141619"/>
</radialGradient>
<radialGradient id="paint2_radial_2139_1855" cx="0" cy="0" r="1" gradientUnits="userSpaceOnUse" gradientTransform="translate(9.5 9.5) rotate(-90) scale(9.5)">
<stop stop-color="#14FFEC"/>
<stop offset="1" stop-color="#141619"/>
</radialGradient>
</defs>
</svg>
