<svg width="106" height="124" viewBox="0 0 106 124" fill="none" xmlns="http://www.w3.org/2000/svg">
<rect x="7.60352" y="31.8525" width="91.1497" height="91.1502" rx="30.5" fill="#14FFEC" stroke="#2F2E39"/>
<rect x="18.8184" y="43.0676" width="68.72" height="68.7203" rx="22" fill="#2F2E39"/>
<circle cx="53.1785" cy="6.00049" r="5.15601" fill="#14FFEC" stroke="#2F2E39"/>
<rect x="51.5811" y="10.9912" width="3.52637" height="20.3616" fill="#14FFEC"/>
<path d="M105.424 78.0133C105.424 82.8677 104.705 87.2407 103.558 90.382C102.984 91.9547 102.312 93.1923 101.591 94.0274C100.869 94.864 100.143 95.2478 99.4492 95.2478C98.755 95.2478 98.0296 94.864 97.3075 94.0274C96.5867 93.1923 95.9148 91.9547 95.3407 90.382C94.1938 87.2407 93.4746 82.8677 93.4746 78.0133C93.4746 73.1589 94.1938 68.7859 95.3407 65.6446C95.9148 64.0719 96.5867 62.8343 97.3075 61.9992C98.0296 61.1626 98.755 60.7788 99.4492 60.7788C100.143 60.7788 100.869 61.1626 101.591 61.9992C102.312 62.8343 102.984 64.0719 103.558 65.6446C104.705 68.7859 105.424 73.1589 105.424 78.0133Z" fill="#14FFEC" stroke="#2F2E39"/>
<path d="M13.0781 78.0133C13.0781 82.8677 12.3589 87.2407 11.2121 90.382C10.6379 91.9547 9.96606 93.1923 9.24522 94.0274C8.52311 94.864 7.79773 95.2478 7.10352 95.2478C6.4093 95.2478 5.68392 94.864 4.96181 94.0274C4.24097 93.1923 3.56912 91.9547 2.99495 90.382C1.84809 87.2407 1.12891 82.8677 1.12891 78.0133C1.12891 73.1589 1.84809 68.7859 2.99495 65.6446C3.56912 64.0719 4.24097 62.8343 4.96181 61.9992C5.68392 61.1626 6.4093 60.7788 7.10352 60.7788C7.79773 60.7788 8.52311 61.1626 9.24522 61.9992C9.96606 62.8343 10.6379 64.0719 11.2121 65.6446C12.3589 68.7859 13.0781 73.1589 13.0781 78.0133Z" fill="#14FFEC" stroke="#2F2E39"/>
<rect x="36.002" y="60.9102" width="5.94067" height="5.94067" fill="#14FFEC"/>
<rect x="30.0605" y="66.8508" width="5.94067" height="5.94067" fill="#14FFEC"/>
<rect x="41.9424" y="66.8508" width="5.94067" height="5.94067" fill="#14FFEC"/>
<rect x="68.2734" y="60.9102" width="5.94067" height="5.94067" fill="#14FFEC"/>
<rect x="62.332" y="66.8508" width="5.94067" height="5.94067" fill="#14FFEC"/>
<rect x="74.2139" y="66.8508" width="5.94067" height="5.94067" fill="#14FFEC"/>
</svg>
