<svg width="115" height="115" viewBox="0 0 115 115" fill="none" xmlns="http://www.w3.org/2000/svg">
<circle cx="57.165" cy="57.6885" r="56.5371" fill="url(#paint0_linear_2997_5209)" fill-opacity="0.15" stroke="#14FFEC"/>
<rect x="30.9279" y="34.6726" width="51.0343" height="51.0275" rx="19.7" fill="#14FFEC" stroke="#2F2E39" stroke-width="0.6"/>
<rect x="37.1924" y="40.936" width="38.5059" height="38.5009" rx="19.2504" fill="#2F2E39"/>
<path d="M59.3148 20.1688C59.3148 21.7532 58.0303 23.0376 56.4456 23.0376C54.8609 23.0376 53.5764 21.7532 53.5764 20.1688C53.5764 18.5844 54.8609 17.3 56.4456 17.3C58.0303 17.3 59.3148 18.5844 59.3148 20.1688Z" fill="#14FFEC" stroke="#2F2E39" stroke-width="0.6"/>
<rect x="55.5498" y="22.9648" width="1.97593" height="11.4077" fill="#14FFEC"/>
<path d="M85.7 60.5144C85.7 63.2325 85.2972 65.68 84.6556 67.4372C84.3343 68.3171 83.9589 69.008 83.5571 69.4734C83.1546 69.9397 82.7531 70.1503 82.3721 70.1503C81.991 70.1503 81.5895 69.9397 81.187 69.4734C80.7852 69.008 80.4098 68.3171 80.0885 67.4372C79.4469 65.68 79.0441 63.2325 79.0441 60.5144C79.0441 57.7964 79.4469 55.3489 80.0885 53.5916C80.4098 52.7118 80.7852 52.0209 81.187 51.5555C81.5895 51.0892 81.991 50.8786 82.3721 50.8786C82.7531 50.8786 83.1546 51.0892 83.5571 51.5555C83.9589 52.0209 84.3343 52.7118 84.6556 53.5916C85.2972 55.3489 85.7 57.7964 85.7 60.5144Z" fill="#14FFEC" stroke="#2F2E39" stroke-width="0.6"/>
<path d="M33.9558 60.5144C33.9558 63.2325 33.5531 65.68 32.9115 67.4372C32.5902 68.3171 32.2148 69.008 31.813 69.4734C31.4105 69.9397 31.009 70.1503 30.6279 70.1503C30.2468 70.1503 29.8454 69.9397 29.4429 69.4734C29.0411 69.008 28.6657 68.3171 28.3444 67.4372C27.7028 65.68 27.3 63.2325 27.3 60.5144C27.3 57.7964 27.7028 55.3489 28.3444 53.5916C28.6657 52.7118 29.0411 52.0209 29.4429 51.5555C29.8454 51.0892 30.2468 50.8786 30.6279 50.8786C31.009 50.8786 31.4105 51.0892 31.813 51.5555C32.2148 52.0209 32.5902 52.7118 32.9115 53.5916C33.5531 55.3489 33.9558 57.7964 33.9558 60.5144Z" fill="#14FFEC" stroke="#2F2E39" stroke-width="0.6"/>
<rect x="46.8203" y="50.9321" width="3.32874" height="3.32829" fill="#14FFEC"/>
<rect x="43.4912" y="54.2603" width="3.32874" height="3.32829" fill="#14FFEC"/>
<rect x="50.1494" y="54.2603" width="3.32874" height="3.32829" fill="#14FFEC"/>
<rect x="64.9033" y="50.9321" width="3.32874" height="3.32829" fill="#14FFEC"/>
<rect x="61.5742" y="54.2603" width="3.32874" height="3.32829" fill="#14FFEC"/>
<rect x="68.2324" y="54.2603" width="3.32874" height="3.32829" fill="#14FFEC"/>
<defs>
<linearGradient id="paint0_linear_2997_5209" x1="0.12793" y1="57.6885" x2="114.202" y2="57.6885" gradientUnits="userSpaceOnUse">
<stop stop-color="#141619"/>
<stop offset="1" stop-color="#14FFEC"/>
</linearGradient>
</defs>
</svg>
