<svg width="13" height="13" viewBox="0 0 13 13" fill="none" xmlns="http://www.w3.org/2000/svg">
<g clip-path="url(#clip0_402_1295)">
<mask id="mask0_402_1295" style="mask-type:luminance" maskUnits="userSpaceOnUse" x="1" y="0" width="12" height="13">
<path d="M12.5014 5.72364H6.985V8.01092H10.1603C9.86428 9.46401 8.62646 10.2982 6.985 10.2982C5.04755 10.2982 3.48682 8.73746 3.48682 6.80001C3.48682 4.86255 5.04755 3.30182 6.985 3.30182C7.81919 3.30182 8.57264 3.59782 9.16464 4.08219L10.8868 2.36001C9.83737 1.4451 8.49191 0.880005 6.985 0.880005C3.70209 0.880005 1.065 3.5171 1.065 6.80001C1.065 10.0829 3.70209 12.72 6.985 12.72C9.94501 12.72 12.6359 10.5673 12.6359 6.80001C12.6359 6.45019 12.5821 6.07346 12.5014 5.72364Z" fill="white"/>
</mask>
<g mask="url(#mask0_402_1295)">
<path d="M0.526794 10.2982V3.30182L5.10134 6.8L0.526794 10.2982Z" fill="#FBBC05"/>
</g>
<mask id="mask1_402_1295" style="mask-type:luminance" maskUnits="userSpaceOnUse" x="1" y="0" width="12" height="13">
<path d="M12.5014 5.72364H6.985V8.01092H10.1603C9.86428 9.46401 8.62646 10.2982 6.985 10.2982C5.04755 10.2982 3.48682 8.73746 3.48682 6.80001C3.48682 4.86255 5.04755 3.30182 6.985 3.30182C7.81919 3.30182 8.57264 3.59782 9.16464 4.08219L10.8868 2.36001C9.83737 1.4451 8.49191 0.880005 6.985 0.880005C3.70209 0.880005 1.065 3.5171 1.065 6.80001C1.065 10.0829 3.70209 12.72 6.985 12.72C9.94501 12.72 12.6359 10.5673 12.6359 6.80001C12.6359 6.45019 12.5821 6.07346 12.5014 5.72364Z" fill="white"/>
</mask>
<g mask="url(#mask1_402_1295)">
<path d="M0.526794 3.30183L5.10134 6.80001L6.98498 5.15856L13.4432 4.1091V0.341827H0.526794V3.30183Z" fill="#EA4335"/>
</g>
<mask id="mask2_402_1295" style="mask-type:luminance" maskUnits="userSpaceOnUse" x="1" y="0" width="12" height="13">
<path d="M12.5014 5.72364H6.985V8.01092H10.1603C9.86428 9.46401 8.62646 10.2982 6.985 10.2982C5.04755 10.2982 3.48682 8.73746 3.48682 6.80001C3.48682 4.86255 5.04755 3.30182 6.985 3.30182C7.81919 3.30182 8.57264 3.59782 9.16464 4.08219L10.8868 2.36001C9.83737 1.4451 8.49191 0.880005 6.985 0.880005C3.70209 0.880005 1.065 3.5171 1.065 6.80001C1.065 10.0829 3.70209 12.72 6.985 12.72C9.94501 12.72 12.6359 10.5673 12.6359 6.80001C12.6359 6.45019 12.5821 6.07346 12.5014 5.72364Z" fill="white"/>
</mask>
<g mask="url(#mask2_402_1295)">
<path d="M0.526794 10.2982L8.59952 4.1091L10.7253 4.37819L13.4432 0.341827V13.2582H0.526794V10.2982Z" fill="#34A853"/>
</g>
<mask id="mask3_402_1295" style="mask-type:luminance" maskUnits="userSpaceOnUse" x="1" y="0" width="12" height="13">
<path d="M12.5014 5.72364H6.985V8.01092H10.1603C9.86428 9.46401 8.62646 10.2982 6.985 10.2982C5.04755 10.2982 3.48682 8.73746 3.48682 6.80001C3.48682 4.86255 5.04755 3.30182 6.985 3.30182C7.81919 3.30182 8.57264 3.59782 9.16464 4.08219L10.8868 2.36001C9.83737 1.4451 8.49191 0.880005 6.985 0.880005C3.70209 0.880005 1.065 3.5171 1.065 6.80001C1.065 10.0829 3.70209 12.72 6.985 12.72C9.94501 12.72 12.6359 10.5673 12.6359 6.80001C12.6359 6.45019 12.5821 6.07346 12.5014 5.72364Z" fill="white"/>
</mask>
<g mask="url(#mask3_402_1295)">
<path d="M13.4432 13.2582L5.10139 6.8L4.02502 5.99273L13.4432 3.30182V13.2582Z" fill="#4285F4"/>
</g>
</g>
<defs>
<clipPath id="clip0_402_1295">
<rect width="11.84" height="11.84" fill="white" transform="translate(0.880005 0.880005)"/>
</clipPath>
</defs>
</svg>
