<svg width="6" height="6" viewBox="0 0 6 6" fill="none" xmlns="http://www.w3.org/2000/svg">
<path d="M2.67868 0C1.20352 -1.34992e-07 -1.34988e-07 1.20355 0 2.67874C0 4.15394 1.20352 5.35749 2.67868 5.35749C4.15384 5.35749 5.35735 4.15394 5.35735 2.67874C5.35735 1.20355 4.15384 -1.34992e-07 2.67868 0ZM2.6787 0.714341C3.76782 0.714339 4.64236 1.58961 4.64236 2.67875C4.64236 3.7679 3.76782 4.64247 2.6787 4.64247C1.58958 4.64247 0.714335 3.7679 0.714335 2.67875C0.714335 1.58961 1.58958 0.714341 2.6787 0.714341ZM3.07978 1.13289C3.06722 1.13246 3.05465 1.13269 3.04211 1.13358C2.65261 1.16329 2.58661 1.70706 2.95771 1.82908C3.19842 1.90882 3.39398 2.08713 3.49553 2.31948C3.66791 2.79735 4.38154 2.4866 4.14916 2.03487C3.96657 1.61712 3.61719 1.29509 3.18442 1.15172C3.15067 1.14026 3.1154 1.13391 3.07978 1.13289Z" fill="white"/>
</svg>
