<svg width="21" height="23" viewBox="0 0 21 23" fill="none" xmlns="http://www.w3.org/2000/svg">
<path d="M16.7528 7.67467C16.7528 5.8921 16.0889 4.18255 14.9072 2.92208C13.7255 1.66161 12.1228 0.953493 10.4517 0.953493C8.78049 0.953493 7.17779 1.66161 5.9961 2.92208C4.81441 4.18254 4.15055 5.89209 4.15055 7.67467C4.15055 15.5161 0.999997 17.7564 0.999997 17.7564L19.9033 17.7564C19.9033 17.7564 16.7528 15.5161 16.7528 7.67467Z" stroke="#14FFEC" stroke-width="1.5" stroke-linecap="round" stroke-linejoin="round"/>
<path d="M11.6336 20.9535C11.449 21.2718 11.1841 21.536 10.8651 21.7196C10.5463 21.9033 10.1848 22 9.81682 22C9.44883 22 9.08736 21.9033 8.76852 21.7196C8.44969 21.536 8.18462 21.2718 8 20.9535" stroke="#14FFEC" stroke-width="1.5" stroke-linecap="round" stroke-linejoin="round"/>
</svg>
