<svg width="115" height="115" viewBox="0 0 115 115" fill="none" xmlns="http://www.w3.org/2000/svg">
<circle cx="57.2393" cy="57.9255" r="56.5371" fill="url(#paint0_linear_3001_3030)" fill-opacity="0.15" stroke="#14FFEC"/>
<path d="M42.3716 70.2373L46.8516 47.8373H55.4916C58.2009 47.8373 60.2916 48.4346 61.7636 49.6293C63.2569 50.824 64.0036 52.4773 64.0036 54.5893C64.0036 56.488 63.5662 58.1306 62.6916 59.5173C61.8382 60.8826 60.6116 61.9386 59.0116 62.6853C57.4116 63.4106 55.5129 63.7733 53.3156 63.7733H46.0196L48.2276 61.7893L46.5316 70.2373H42.3716ZM48.1316 62.2693L46.6596 60.2533H53.4756C55.4809 60.2533 57.0382 59.8053 58.1476 58.9093C59.2569 58.0133 59.8116 56.7013 59.8116 54.9733C59.8116 53.7573 59.3956 52.8506 58.5636 52.2533C57.7529 51.656 56.5796 51.3573 55.0436 51.3573H48.5476L50.7236 49.2773L48.1316 62.2693ZM66.7503 70.2373L69.8463 54.7573L70.9503 56.0533H66.0063L66.5343 53.4373H73.2303L69.8703 70.2373H66.7503Z" fill="#14FFEC"/>
<defs>
<linearGradient id="paint0_linear_3001_3030" x1="0.202148" y1="57.9255" x2="114.276" y2="57.9255" gradientUnits="userSpaceOnUse">
<stop stop-color="#141619"/>
<stop offset="1" stop-color="#14FFEC"/>
</linearGradient>
</defs>
</svg>
