<svg width="115" height="115" viewBox="0 0 115 115" fill="none" xmlns="http://www.w3.org/2000/svg">
<circle cx="57.165" cy="57.9255" r="56.5371" fill="url(#paint0_linear_3001_3029)" fill-opacity="0.15" stroke="#14FFEC"/>
<path d="M39.3833 70.2373L43.8633 47.8373H52.5033C55.2126 47.8373 57.3033 48.4346 58.7753 49.6293C60.2686 50.824 61.0153 52.4773 61.0153 54.5893C61.0153 56.488 60.578 58.1306 59.7033 59.5173C58.85 60.8826 57.6233 61.9386 56.0233 62.6853C54.4233 63.4106 52.5246 63.7733 50.3273 63.7733H43.0313L45.2393 61.7893L43.5433 70.2373H39.3833ZM45.1433 62.2693L43.6713 60.2533H50.4873C52.4926 60.2533 54.05 59.8053 55.1593 58.9093C56.2686 58.0133 56.8233 56.7013 56.8233 54.9733C56.8233 53.7573 56.4073 52.8506 55.5753 52.2533C54.7646 51.656 53.5913 51.3573 52.0553 51.3573H45.5593L47.7353 49.2773L45.1433 62.2693ZM60.858 70.2373L61.266 68.1493L69.186 61.8853C69.89 61.3253 70.434 60.8293 70.818 60.3973C71.218 59.9653 71.498 59.5573 71.658 59.1733C71.818 58.7893 71.898 58.3973 71.898 57.9973C71.898 57.3413 71.658 56.8213 71.178 56.4373C70.714 56.0533 69.994 55.8613 69.018 55.8613C68.266 55.8613 67.546 56.0213 66.858 56.3413C66.17 56.6453 65.562 57.0853 65.034 57.6613L62.922 55.9813C63.626 55.1333 64.546 54.4613 65.682 53.9653C66.834 53.4533 68.09 53.1973 69.45 53.1973C70.618 53.1973 71.618 53.3893 72.45 53.7733C73.298 54.1413 73.946 54.6533 74.394 55.3093C74.842 55.9493 75.066 56.7013 75.066 57.5653C75.066 58.2053 74.946 58.8373 74.706 59.4613C74.482 60.0853 74.098 60.7253 73.554 61.3813C73.026 62.0213 72.266 62.7253 71.274 63.4933L64.506 68.7973L63.906 67.5973H73.77L73.218 70.2373H60.858Z" fill="#14FFEC"/>
<defs>
<linearGradient id="paint0_linear_3001_3029" x1="0.12793" y1="57.9255" x2="114.202" y2="57.9255" gradientUnits="userSpaceOnUse">
<stop stop-color="#141619"/>
<stop offset="1" stop-color="#14FFEC"/>
</linearGradient>
</defs>
</svg>
