<svg width="20" height="20" viewBox="0 0 20 20" fill="none" xmlns="http://www.w3.org/2000/svg">
<path d="M2.67868 0.000866593C1.20352 0.000866458 -1.34988e-07 1.20441 0 2.67961C0 4.15481 1.20352 5.35836 2.67868 5.35836C4.15384 5.35836 5.35735 4.15481 5.35735 2.67961C5.35735 1.20441 4.15384 0.000866458 2.67868 0.000866593ZM12.1698 0.000866593C10.9445 0.0192239 9.71378 0.32929 8.58572 0.946798C5.57924 2.59256 4.0175 6.03079 4.75675 9.37717C5.15505 10.767 4.78963 12.2375 3.80315 13.2446L0.105333 16.9432C-0.034555 17.0828 -0.034555 17.3094 0.105333 17.449L2.55172 19.8961C2.69104 20.0346 2.91605 20.0346 3.05537 19.8961L6.74204 16.2115C7.74076 15.2233 9.20344 14.8494 10.5905 15.2341L10.5898 15.237C13.9351 15.9918 17.3809 14.4427 19.0388 11.4406C20.6968 8.43863 20.1729 4.69829 17.7525 2.26873C16.2398 0.750258 14.2122 -0.0297286 12.1698 0.000866593ZM12.1817 0.713803C14.0345 0.686036 15.8728 1.39461 17.2468 2.77379C19.4451 4.98048 19.9197 8.3694 18.4138 11.096C17.4633 12.817 15.868 14.0083 14.0568 14.4821L5.51919 5.94503C5.99505 4.12436 7.19538 2.52219 8.92893 1.57323C9.95351 1.01237 11.07 0.730464 12.1817 0.713803ZM2.6787 0.715207C3.76782 0.715206 4.64236 1.59047 4.64236 2.67962C4.64236 3.76876 3.76782 4.64333 2.6787 4.64333C1.58958 4.64333 0.714335 3.76876 0.714335 2.67962C0.714335 1.59047 1.58958 0.715207 2.6787 0.715207ZM3.07978 1.13375C3.06722 1.13332 3.05465 1.13355 3.04211 1.13445C2.65261 1.16416 2.58661 1.70793 2.95771 1.82995C3.19842 1.90969 3.39398 2.088 3.49553 2.32035C3.66792 2.79821 4.38154 2.48747 4.14916 2.03573C3.96657 1.61799 3.61719 1.29596 3.18442 1.15259C3.15067 1.14112 3.1154 1.13478 3.07978 1.13375ZM5.35387 6.7919L13.2078 14.6461C12.416 14.7513 11.5978 14.7251 10.7845 14.5463L10.7852 14.545C9.89994 14.2982 8.98472 14.3177 8.14278 14.5728L9.50932 12.8275C9.62035 12.6854 9.60809 12.4828 9.48072 12.3552L7.64541 10.5205C7.57719 10.4519 7.48406 10.4139 7.38731 10.4152C7.30979 10.4167 7.23486 10.4434 7.17385 10.4912L5.42573 11.8634C5.68101 11.0233 5.69961 10.1098 5.45573 9.22649C5.27454 8.40921 5.24823 7.58715 5.35387 6.7919ZM7.36357 11.2481L8.75314 12.6377L6.74413 15.2C5.43254 16.5086 4.1194 17.8247 2.80494 19.1392L0.861502 17.1965C2.17072 15.8873 3.48222 14.5757 4.78744 13.2704L7.36357 11.2481Z" fill="#14FFEC"/>
</svg>
