<svg width="63" height="63" viewBox="0 0 63 63" fill="none" xmlns="http://www.w3.org/2000/svg">
<path fill-rule="evenodd" clip-rule="evenodd" d="M53.4764 9.52316H9.52292V53.4766H53.4764V9.52316ZM7.08105 7.0813V55.9185H55.9183V7.0813H7.08105Z" fill="white"/>
<path fill-rule="evenodd" clip-rule="evenodd" d="M6.10465 2.44186C4.08175 2.44186 2.44186 4.08175 2.44186 6.10465V26.7689C2.44186 27.4432 1.89523 27.9898 1.22093 27.9898C0.546629 27.9898 0 27.4432 0 26.7689V6.10465C0 2.73315 2.73315 0 6.10465 0H56.8953C60.2669 0 63 2.73315 63 6.10465V56.8953C63 60.2669 60.2669 63 56.8953 63H6.10465C2.73314 63 0 60.2669 0 56.8953V36.7042C0 36.0299 0.546629 35.4833 1.22093 35.4833C1.89523 35.4833 2.44186 36.0299 2.44186 36.7042V56.8953C2.44186 58.9183 4.08175 60.5581 6.10465 60.5581H56.8953C58.9183 60.5581 60.5581 58.9183 60.5581 56.8953V6.10465C60.5581 4.08175 58.9183 2.44186 56.8953 2.44186H6.10465Z" fill="white"/>
<path fill-rule="evenodd" clip-rule="evenodd" d="M8.66014 10.1252L1.21884 2.68848L2.94496 0.961289L10.3863 8.39798L8.66014 10.1252Z" fill="white"/>
<path fill-rule="evenodd" clip-rule="evenodd" d="M54.8284 53.3631L61.7804 60.3124L60.0541 62.0394L53.1021 55.0901L54.8284 53.3631Z" fill="white"/>
<path fill-rule="evenodd" clip-rule="evenodd" d="M8.18898 53.3457L1.21943 60.3122L2.9457 62.0392L9.91525 55.0728L8.18898 53.3457Z" fill="white"/>
<path fill-rule="evenodd" clip-rule="evenodd" d="M54.8109 9.65437L61.7809 2.68842L60.0548 0.961257L53.0848 7.92721L54.8109 9.65437Z" fill="white"/>
<ellipse cx="1.22088" cy="31.4999" rx="0.976744" ry="0.976745" fill="white"/>
<path d="M31.5528 40.4548C30.4589 40.4548 29.4743 40.2672 28.5992 39.8922C27.724 39.5015 27.0364 38.9545 26.5363 38.2512C26.0362 37.548 25.7861 36.7275 25.7861 35.7898H28.646C28.7086 36.4931 28.982 37.0713 29.4665 37.5245C29.9666 37.9777 30.662 38.2043 31.5528 38.2043C32.4749 38.2043 33.1938 37.9856 33.7095 37.548C34.2252 37.0948 34.4831 36.5165 34.4831 35.8133C34.4831 35.2663 34.319 34.8209 33.9908 34.4771C33.6782 34.1333 33.2797 33.8676 32.7952 33.6801C32.3264 33.4925 31.67 33.2894 30.8261 33.0706C29.7634 32.7893 28.8961 32.508 28.2241 32.2267C27.5677 31.9297 27.0051 31.4765 26.5363 30.867C26.0674 30.2576 25.833 29.4449 25.833 28.4291C25.833 27.4914 26.0674 26.6709 26.5363 25.9677C27.0051 25.2644 27.6615 24.7253 28.5054 24.3502C29.3493 23.9751 30.326 23.7876 31.4356 23.7876C33.014 23.7876 34.3033 24.1861 35.3035 24.9831C36.3193 25.7645 36.8819 26.8429 36.9913 28.2181H34.0377C33.9908 27.6242 33.7095 27.1163 33.1938 26.6944C32.678 26.2724 31.9982 26.0615 31.1543 26.0615C30.3886 26.0615 29.7634 26.2568 29.279 26.6475C28.7945 27.0382 28.5523 27.6008 28.5523 28.3353C28.5523 28.8354 28.7007 29.2496 28.9977 29.5777C29.3102 29.8903 29.7009 30.1403 30.1698 30.3279C30.6386 30.5154 31.2793 30.7186 32.092 30.9374C33.1703 31.2343 34.0455 31.5312 34.7175 31.8282C35.4051 32.1251 35.9833 32.5861 36.4522 33.2112C36.9366 33.8207 37.1789 34.6412 37.1789 35.6726C37.1789 36.5009 36.9523 37.2823 36.4991 38.0168C36.0615 38.7513 35.4129 39.3452 34.5534 39.7984C33.7095 40.236 32.7093 40.4548 31.5528 40.4548Z" fill="white"/>
</svg>
