<svg width="20" height="20" viewBox="0 0 20 20" fill="none" xmlns="http://www.w3.org/2000/svg">
<path d="M18.4926 1.82025C18.0076 1.18747 17.1237 0.962195 16.1309 1.22775L2.87395 4.77136C1.96673 5.0147 1.36423 5.53192 1.17784 6.22803C0.989784 6.92997 1.25701 7.6872 1.93034 8.36025L6.87978 13.3097L11.6431 18.0728C12.172 18.6022 12.7573 18.8816 13.3348 18.8816C14.2306 18.8816 14.9406 18.2253 15.2359 17.1255L18.7695 3.87886C18.987 3.06747 18.889 2.33636 18.4926 1.82025ZM17.6962 3.59164L14.162 16.8386C14.0867 17.1183 13.8556 17.7705 13.3345 17.7705C13.0617 17.7705 12.7398 17.5991 12.4284 17.2872L8.05812 12.9169L11.3973 9.57747C11.4503 9.52623 11.4927 9.46492 11.5218 9.39714C11.5509 9.32936 11.5662 9.25646 11.5669 9.1827C11.5675 9.10893 11.5535 9.03577 11.5255 8.9675C11.4976 8.89922 11.4563 8.83719 11.4042 8.78503C11.352 8.73287 11.29 8.69162 11.2217 8.66368C11.1534 8.63575 11.0803 8.62169 11.0065 8.62233C10.9327 8.62297 10.8598 8.6383 10.7921 8.66742C10.7243 8.69653 10.663 8.73886 10.6117 8.79192L7.27256 12.1314L2.71589 7.57497C2.34062 7.1997 2.17117 6.81358 2.2509 6.51581C2.32923 6.22358 2.66117 5.97886 3.16145 5.84497L16.4187 2.30136C16.5878 2.25403 16.7623 2.22882 16.9378 2.22636C17.1506 2.22636 17.4398 2.27303 17.6112 2.49664C17.7923 2.73247 17.8223 3.12108 17.6962 3.59164Z" fill="#14FFEC"/>
<path d="M14.5085 12.1306C14.4371 12.1124 14.3615 12.1231 14.298 12.1604C14.2345 12.1977 14.1882 12.2586 14.1694 12.3298L14.1407 12.4389C14.126 12.5089 14.1388 12.5819 14.1764 12.6428C14.214 12.7036 14.2737 12.7476 14.3429 12.7657C14.4121 12.7837 14.4856 12.7744 14.5482 12.7397C14.6107 12.705 14.6575 12.6475 14.6788 12.5792L14.7074 12.4698C14.7259 12.3984 14.7154 12.3227 14.6781 12.2591C14.6408 12.1955 14.5798 12.1493 14.5085 12.1306Z" fill="#14FFEC"/>
<path d="M14.2994 12.9367C14.264 12.9275 14.2273 12.9254 14.1911 12.9304C14.1549 12.9354 14.1201 12.9475 14.0886 12.966C14.0572 12.9845 14.0297 13.009 14.0077 13.0382C13.9857 13.0673 13.9696 13.1005 13.9605 13.1359L13.3683 15.4161C13.3591 15.4515 13.357 15.4882 13.3621 15.5243C13.3671 15.5605 13.3792 15.5953 13.3977 15.6267C13.4162 15.6581 13.4407 15.6856 13.4698 15.7076C13.499 15.7296 13.5321 15.7456 13.5674 15.7548C13.6027 15.7639 13.6395 15.766 13.6756 15.761C13.7118 15.7559 13.7465 15.7438 13.778 15.7253C13.8094 15.7068 13.8369 15.6823 13.8589 15.6532C13.8809 15.6241 13.8969 15.5909 13.906 15.5556L14.4985 13.2753C14.517 13.204 14.5063 13.1283 14.469 13.0648C14.4317 13.0013 14.3707 12.9553 14.2994 12.9367Z" fill="#14FFEC"/>
</svg>
