<svg width="20" height="20" viewBox="0 0 20 20" fill="none" xmlns="http://www.w3.org/2000/svg">
<path d="M18.4916 1.82025C18.0066 1.18747 17.1227 0.962195 16.1299 1.22775L2.87297 4.77136C1.96575 5.0147 1.36325 5.53192 1.17686 6.22803C0.988807 6.92997 1.25603 7.6872 1.92936 8.36025L6.87881 13.3097L11.6421 18.0728C12.171 18.6022 12.7563 18.8816 13.3338 18.8816C14.2296 18.8816 14.9396 18.2253 15.2349 17.1255L18.7685 3.87886C18.986 3.06747 18.888 2.33636 18.4916 1.82025ZM17.6952 3.59164L14.161 16.8386C14.0858 17.1183 13.8546 17.7705 13.3335 17.7705C13.0608 17.7705 12.7388 17.5991 12.4274 17.2872L8.05714 12.9169L11.3963 9.57747C11.4494 9.52623 11.4917 9.46492 11.5208 9.39714C11.5499 9.32936 11.5652 9.25646 11.5659 9.1827C11.5665 9.10893 11.5525 9.03577 11.5245 8.9675C11.4966 8.89922 11.4554 8.83719 11.4032 8.78503C11.351 8.73287 11.289 8.69162 11.2207 8.66368C11.1525 8.63575 11.0793 8.62169 11.0055 8.62233C10.9318 8.62297 10.8589 8.6383 10.7911 8.66742C10.7233 8.69653 10.662 8.73886 10.6108 8.79192L7.27158 12.1314L2.71492 7.57497C2.33964 7.1997 2.1702 6.81358 2.24992 6.51581C2.32825 6.22358 2.6602 5.97886 3.16047 5.84497L16.4177 2.30136C16.5868 2.25403 16.7613 2.22882 16.9369 2.22636C17.1496 2.22636 17.4388 2.27303 17.6102 2.49664C17.7913 2.73247 17.8213 3.12108 17.6952 3.59164Z" fill="white"/>
<path d="M14.509 12.1306C14.4376 12.1124 14.362 12.1231 14.2985 12.1604C14.2349 12.1977 14.1887 12.2586 14.1698 12.3298L14.1412 12.4389C14.1265 12.5089 14.1393 12.5819 14.1769 12.6428C14.2145 12.7036 14.2741 12.7476 14.3434 12.7657C14.4126 12.7837 14.4861 12.7744 14.5487 12.7397C14.6112 12.705 14.658 12.6475 14.6793 12.5792L14.7079 12.4698C14.7264 12.3984 14.7159 12.3227 14.6786 12.2591C14.6413 12.1955 14.5803 12.1493 14.509 12.1306Z" fill="white"/>
<path d="M14.2999 12.9367C14.2645 12.9275 14.2277 12.9254 14.1916 12.9304C14.1554 12.9354 14.1206 12.9475 14.0891 12.966C14.0577 12.9845 14.0301 13.009 14.0082 13.0382C13.9862 13.0673 13.9701 13.1005 13.961 13.1359L13.3688 15.4161C13.3596 15.4515 13.3575 15.4882 13.3625 15.5243C13.3676 15.5605 13.3797 15.5953 13.3982 15.6267C13.4167 15.6581 13.4412 15.6856 13.4703 15.7076C13.4994 15.7296 13.5326 15.7456 13.5679 15.7548C13.6032 15.7639 13.64 15.766 13.6761 15.761C13.7123 15.7559 13.747 15.7438 13.7785 15.7253C13.8099 15.7068 13.8374 15.6823 13.8594 15.6532C13.8814 15.6241 13.8974 15.5909 13.9065 15.5556L14.499 13.2753C14.5174 13.204 14.5068 13.1283 14.4695 13.0648C14.4321 13.0013 14.3711 12.9553 14.2999 12.9367Z" fill="white"/>
</svg>
