<svg width="21" height="22" viewBox="0 0 21 22" fill="none" xmlns="http://www.w3.org/2000/svg">
<path d="M0.945852 5.92688C1.16714 5.88402 1.3968 5.92906 1.58399 6.05203C1.95376 6.29757 2.06097 6.78336 1.8276 7.15583L1.76637 7.27619C1.535 7.80608 1.74166 8.43287 2.26608 8.72587C2.6904 8.97978 3.03967 9.33725 3.27948 9.76306C4.02624 11.1026 3.5628 12.7788 2.22711 13.5692C1.66235 13.8848 1.4661 14.5874 1.78862 15.1393L2.46097 16.2716C2.61395 16.5415 2.87303 16.7387 3.17834 16.8177C3.48364 16.8967 3.80874 16.8507 4.07851 16.6903C4.51348 16.4439 5.00807 16.3158 5.51091 16.3192C7.12538 16.3192 8.43417 17.5973 8.43417 19.1738C8.43952 19.8113 8.9702 20.3252 9.62297 20.3252L9.61322 20.3442C9.91609 20.3442 10.196 20.502 10.3474 20.7582C10.4988 21.0143 10.4988 21.3299 10.3474 21.586C10.196 21.8421 9.91609 21.9999 9.61322 21.9999C7.99875 21.9999 6.68996 20.7219 6.68996 19.1453C6.69258 18.9446 6.63865 18.7471 6.53405 18.5744C6.20711 18.0217 5.48455 17.8304 4.91651 18.1462L4.74334 18.2312C3.4033 18.8362 1.79458 18.3685 1.01882 17.1185L0.356217 15.9862C-0.390541 14.6466 0.0729026 12.9705 1.40859 12.18C1.58563 12.0783 1.73319 11.9342 1.83734 11.7613C2.03276 11.4953 2.10299 11.1607 2.03047 10.841C1.95794 10.5214 1.74951 10.2471 1.45731 10.0866L1.29492 9.98325C0.0851051 9.15701 -0.310704 7.56413 0.40494 6.2804L0.487932 6.17732C0.608823 6.04946 0.768818 5.96117 0.945852 5.92688ZM18.4184 8.677C18.8025 8.54239 19.2397 8.68839 19.4549 9.03989C19.6931 9.43158 19.5624 9.93762 19.1626 10.1722C18.9855 10.2739 18.838 10.418 18.7338 10.5909C18.575 10.8556 18.531 11.1713 18.6115 11.4678C18.692 11.7644 18.8903 12.0173 19.1626 12.1705C20.5414 12.9776 20.9941 14.7205 20.176 16.0718L19.5133 17.2041L19.4075 17.3627C18.5614 18.5441 16.9302 18.9306 15.6157 18.2318C15.2511 18.0169 14.7958 18.0125 14.427 18.2203C14.0582 18.4281 13.8342 18.8152 13.8422 19.2309C13.7956 19.6565 13.4278 19.9791 12.9896 19.9791C12.5513 19.9791 12.1836 19.6565 12.137 19.2309C12.1579 18.2333 12.7108 17.3187 13.5952 16.8188C14.4796 16.3189 15.5671 16.3063 16.4634 16.7855C16.7327 16.9436 17.0562 16.9883 17.3599 16.9092C17.663 16.8262 17.9214 16.6318 18.0809 16.3668L18.7436 15.2344C18.9019 14.9712 18.9457 14.6569 18.8651 14.3619C18.7846 14.0669 18.5864 13.8157 18.3148 13.6644C17.8582 13.3927 17.4899 13 17.2527 12.5321C16.5059 11.1925 16.9694 9.51636 18.3051 8.72588L18.4184 8.677ZM10.2856 7.59353C11.2564 7.59101 12.1883 7.96584 12.8757 8.6353C13.5631 9.30476 13.9494 10.2138 13.9494 11.1618L13.9433 11.3779C13.8631 12.7387 12.9947 13.9451 11.6944 14.4741C10.3257 15.0308 8.74819 14.7271 7.69832 13.7046C6.64845 12.6821 6.3332 11.1425 6.89972 9.80438C7.46623 8.46628 8.80281 7.59353 10.2856 7.59353ZM10.2856 9.26826C9.20926 9.26826 8.33673 10.1203 8.33673 11.1713C8.33673 12.2224 9.20926 13.0744 10.2856 13.0744C11.3619 13.0744 12.2344 12.2224 12.2344 11.1713L12.228 11.0153C12.1467 10.0372 11.3081 9.26826 10.2856 9.26826ZM10.9579 0.333254C12.5724 0.333254 13.8812 1.61132 13.8812 3.18789C13.8786 3.38856 13.9325 3.58607 14.0371 3.75881C14.1923 4.02626 14.4506 4.22199 14.7544 4.30242C15.0582 4.38284 15.3824 4.34129 15.6546 4.18701C17.0264 3.45778 18.7428 3.91035 19.5523 5.21468C19.776 5.61272 19.6385 6.11223 19.2405 6.34702C18.8361 6.57248 18.3213 6.44153 18.0809 6.05204L18.0044 5.93994C17.6484 5.47867 16.9885 5.33863 16.4634 5.63336C15.5686 6.11183 14.4831 6.10015 13.5992 5.60253C12.7154 5.10491 12.1612 4.19336 12.137 3.1974C12.1475 2.8855 12.028 2.58277 11.8057 2.35854C11.5835 2.13432 11.2775 2.0078 10.9579 2.00797L9.62297 2.00797C9.30255 2.00788 8.99566 2.1341 8.77186 2.35802C8.54806 2.58194 8.42629 2.8846 8.43417 3.1974C8.42514 4.19878 7.87049 5.11962 6.97863 5.61393C6.08677 6.10824 4.99279 6.10113 4.10774 5.59529L4.06877 5.55723L3.97501 5.49141C3.65274 5.23114 3.569 4.77186 3.79593 4.41538C4.04348 4.02649 4.567 3.90721 4.96523 4.14895C5.14299 4.25024 5.34414 4.30589 5.54989 4.31071C5.86524 4.32359 6.1729 4.21347 6.40504 4.00463C6.63718 3.79579 6.77474 3.50538 6.7874 3.1974C6.78141 1.64999 8.03905 0.379665 9.62297 0.333254L10.9579 0.333254Z" fill="#14FFEC"/>
</svg>
