<svg width="63" height="63" viewBox="0 0 63 63" fill="none" xmlns="http://www.w3.org/2000/svg">
<path fill-rule="evenodd" clip-rule="evenodd" d="M53.4764 9.52316H9.52292V53.4766H53.4764V9.52316ZM7.08105 7.0813V55.9185H55.9183V7.0813H7.08105Z" fill="white"/>
<path fill-rule="evenodd" clip-rule="evenodd" d="M6.10465 2.44186C4.08175 2.44186 2.44186 4.08175 2.44186 6.10465V26.7689C2.44186 27.4432 1.89523 27.9898 1.22093 27.9898C0.546629 27.9898 0 27.4432 0 26.7689V6.10465C0 2.73315 2.73315 0 6.10465 0H56.8953C60.2669 0 63 2.73315 63 6.10465V56.8953C63 60.2669 60.2669 63 56.8953 63H6.10465C2.73314 63 0 60.2669 0 56.8953V36.7042C0 36.0299 0.546629 35.4833 1.22093 35.4833C1.89523 35.4833 2.44186 36.0299 2.44186 36.7042V56.8953C2.44186 58.9183 4.08175 60.5581 6.10465 60.5581H56.8953C58.9183 60.5581 60.5581 58.9183 60.5581 56.8953V6.10465C60.5581 4.08175 58.9183 2.44186 56.8953 2.44186H6.10465Z" fill="white"/>
<path fill-rule="evenodd" clip-rule="evenodd" d="M8.66014 10.1252L1.21884 2.68848L2.94496 0.961289L10.3863 8.39798L8.66014 10.1252Z" fill="white"/>
<path fill-rule="evenodd" clip-rule="evenodd" d="M54.8284 53.3631L61.7804 60.3124L60.0541 62.0394L53.1021 55.0901L54.8284 53.3631Z" fill="white"/>
<path fill-rule="evenodd" clip-rule="evenodd" d="M8.18898 53.3457L1.21943 60.3122L2.9457 62.0392L9.91525 55.0728L8.18898 53.3457Z" fill="white"/>
<path fill-rule="evenodd" clip-rule="evenodd" d="M54.8109 9.65437L61.7809 2.68842L60.0548 0.961257L53.0848 7.92721L54.8109 9.65437Z" fill="white"/>
<ellipse cx="1.22088" cy="31.4999" rx="0.976744" ry="0.976745" fill="white"/>
<path d="M42.764 23.9985L37.9349 40.2906H34.9109L31.4884 27.9602L27.8549 40.2906L24.8544 40.3141L20.2363 23.9985H23.0728L26.4484 37.2666L30.1054 23.9985H33.1059L36.505 37.1963L39.904 23.9985H42.764Z" fill="white"/>
</svg>
